<?xml version="1.0" encoding="utf-8"?>
<!-- Generator: Adobe Illustrator 25.3.1, SVG Export Plug-In . SVG Version: 6.00 Build 0)  -->
<svg version="1.1" xmlns="http://www.w3.org/2000/svg" xmlns:xlink="http://www.w3.org/1999/xlink" x="0px" y="0px"
	 viewBox="0 0 500 500" style="enable-background:new 0 0 500 500;" xml:space="preserve">
<style type="text/css">
	.st0{fill:#E5F1FF;}
	.st1{fill:#A9CCEA;}
	.st2{fill:#0F3157;}
	.st3{fill:#FF4D6B;}
	
		.st4{fill:none;stroke:#FF4D6B;stroke-width:1.1276;stroke-linecap:round;stroke-linejoin:round;stroke-miterlimit:10;stroke-dasharray:0,5.6381;}
	.st5{fill:#289DF2;}
	.st6{fill:#0F3775;}
	.st7{fill:#284D89;}
	.st8{fill:#2889DB;}
	.st9{fill:#FFFFFF;}
	.st10{fill:#282E5C;}
	.st11{fill:none;stroke:#FFFFFF;stroke-width:1.1276;stroke-miterlimit:10;}
	.st12{fill:#289DF2;stroke:#FFFFFF;stroke-width:1.1276;stroke-miterlimit:10;}
	.st13{fill:#289DF2;stroke:#FFFFFF;stroke-width:0.5638;stroke-miterlimit:10;}
	.st14{fill:none;stroke:#284D89;stroke-width:2.2552;stroke-linecap:round;stroke-linejoin:round;stroke-miterlimit:10;}
	.st15{fill:none;stroke:#FF5C66;stroke-width:1.0152;stroke-miterlimit:10;}
	.st16{fill:none;stroke:#F7F7F7;stroke-width:0.2538;stroke-miterlimit:10;}
	.st17{fill:#F7F7F7;}
	.st18{fill:none;stroke:#F7F7F7;stroke-width:0.5076;stroke-miterlimit:10;}
	.st19{font-family:'BebasNeueRegular';}
	.st20{font-size:8.122px;}
	.st21{fill:#28385E;}
	.st22{font-family:'BebasNeueBook';}
	.st23{fill:none;stroke:#289DF2;stroke-width:1.1276;stroke-miterlimit:10;}
	.st24{fill:#F9FBFC;}
	.st25{fill:none;stroke:#FF4D6B;stroke-width:1.1276;stroke-miterlimit:10;}
	.st26{fill:#1AE5FF;}
	.st27{fill:#287DD1;}
	.st28{fill:none;stroke:#289DF2;stroke-width:1.1276;stroke-linecap:round;stroke-linejoin:round;stroke-miterlimit:10;}
</style>
<g id="BACKGROUND">
</g>
<g id="OBJECTS">
	<g>
		<circle class="st0" cx="368.37" cy="162.19" r="85.82"/>
		
			<ellipse transform="matrix(0.7071 -0.7071 0.7071 0.7071 -199.485 204.6147)" class="st0" cx="147.25" cy="343.11" rx="50.16" ry="50.16"/>
		<g>
			<path class="st1" d="M146.58,104.98c-25.33,0-45.86,20.53-45.86,45.86c0,25.33,20.53,45.86,45.86,45.86
				c25.33,0,45.86-20.53,45.86-45.86C192.44,125.51,171.91,104.98,146.58,104.98z M146.58,180.16c-16.19,0-29.32-13.13-29.32-29.32
				s13.13-29.32,29.32-29.32c16.19,0,29.32,13.13,29.32,29.32S162.77,180.16,146.58,180.16z"/>
			<path class="st2" d="M319.83,398.16c0,2.91-2.36,5.26-5.26,5.26H181.51c-2.91,0-5.26-2.36-5.26-5.26c0-2.91,2.36-5.26,5.26-5.26
				h47.23l6.52-12.03h11.28h3.01h11.28l6.52,12.03h47.23C317.47,392.9,319.83,395.26,319.83,398.16z"/>
			<rect x="236.04" y="369.97" class="st3" width="21.8" height="6.39"/>
			<rect x="236.04" y="359.45" class="st3" width="21.8" height="6.39"/>
			<path class="st4" d="M420.51,337.82c-3.79,1.46-7.91,2.25-12.21,2.25c-18.83,0-34.09-15.26-34.09-34.09s15.26-34.09,34.09-34.09
				c18.83,0,34.09,15.26,34.09,34.09c0,5.05-1.1,9.83-3.06,14.14"/>
			<path class="st5" d="M324.25,145.93h-5.44c-1.13-4.84-3.03-9.37-5.58-13.47l3.85-3.85c1.66-1.66,1.66-4.35,0-6.01l-8.55-8.55
				c-1.66-1.66-4.35-1.66-6.01,0l-3.85,3.85c-4.1-2.55-8.64-4.45-13.47-5.58v-5.44c0-2.35-1.9-4.25-4.25-4.25h-12.09
				c-2.35,0-4.25,1.9-4.25,4.25v5.44c-4.84,1.13-9.37,3.03-13.47,5.58l-3.85-3.85c-1.66-1.66-4.35-1.66-6.01,0l-8.55,8.55
				c-1.66,1.66-1.66,4.35,0,6.01l3.85,3.85c-2.55,4.1-4.45,8.64-5.58,13.47h-5.44c-2.35,0-4.25,1.9-4.25,4.25v12.09
				c0,2.35,1.9,4.25,4.25,4.25h5.44c1.13,4.84,3.03,9.37,5.58,13.47l-3.85,3.85c-1.66,1.66-1.66,4.35,0,6.01l8.55,8.55
				c1.66,1.66,4.35,1.66,6.01,0l3.85-3.85c4.1,2.55,8.64,4.45,13.47,5.58v5.44c0,2.35,1.9,4.25,4.25,4.25h12.09
				c2.35,0,4.25-1.9,4.25-4.25v-5.44c4.84-1.13,9.37-3.03,13.47-5.58l3.85,3.85c1.66,1.66,4.35,1.66,6.01,0l8.55-8.55
				c1.66-1.66,1.66-4.35,0-6.01l-3.85-3.85c2.55-4.1,4.45-8.64,5.58-13.47h5.44c2.35,0,4.25-1.9,4.25-4.25v-12.09
				C328.5,147.83,326.6,145.93,324.25,145.93z M274.91,177.79c-11.91,0-21.57-9.66-21.57-21.57c0-11.91,9.66-21.57,21.57-21.57
				c11.91,0,21.57,9.66,21.57,21.57C296.48,168.14,286.82,177.79,274.91,177.79z"/>
			<path class="st6" d="M98.26,356.57c-6.33,0-11.47-5.13-11.47-11.47V165.64c0-6.33,5.13-11.47,11.47-11.47h299.55
				c6.33,0,11.47,5.13,11.47,11.47v179.46c0,6.33-5.13,11.47-11.47,11.47H98.26z"/>
			<rect x="110.31" y="179.22" class="st7" width="33.26" height="7.33"/>
			<rect x="150.34" y="179.22" class="st7" width="33.26" height="7.33"/>
			<rect x="251.82" y="179.22" class="st7" width="33.26" height="7.33"/>
			<rect x="353.31" y="179.22" class="st7" width="33.26" height="7.33"/>
			<rect x="188.11" y="179.22" class="st3" width="59.48" height="7.33"/>
			<rect x="289.04" y="179.22" class="st8" width="59.48" height="7.33"/>
			<rect x="110.5" y="173.39" class="st8" width="5.83" height="3.57"/>
			<g>
				<rect x="110.5" y="192.56" class="st9" width="60.8" height="3.57"/>
				<rect x="110.5" y="198.85" class="st9" width="18.04" height="3.57"/>
			</g>
			<path class="st7" d="M174.86,330.88h-56.38c-4.2,0-7.61-3.41-7.61-7.61V221.22c0-4.2,3.41-7.61,7.61-7.61h56.38
				c4.2,0,7.61,3.41,7.61,7.61v102.05C182.48,327.47,179.07,330.88,174.86,330.88z"/>
			<g>
				<rect x="119.89" y="230.8" class="st9" width="23.96" height="3.66"/>
				<rect x="119.89" y="238.98" class="st9" width="23.96" height="3.66"/>
				<rect x="119.89" y="247.15" class="st9" width="23.96" height="3.66"/>
			</g>
			<rect x="119.89" y="281.27" class="st9" width="14.66" height="3.66"/>
			<rect x="119.89" y="289.44" class="st9" width="14.66" height="3.66"/>
			<rect x="145.08" y="289.44" class="st9" width="14.66" height="3.66"/>
			<rect x="119.89" y="271.96" class="st9" width="9.21" height="3.66"/>
			<rect x="159.36" y="271.96" class="st9" width="4.89" height="3.66"/>
			<rect x="132.3" y="271.96" class="st3" width="25.18" height="3.66"/>
			<rect x="119.89" y="258.15" class="st8" width="3.52" height="3.66"/>
			<rect x="119.89" y="264.63" class="st3" width="3.52" height="3.66"/>
			<polygon class="st9" points="139.44,293.86 138.12,293.86 141.27,289.16 142.59,289.16 			"/>
			<rect x="119.89" y="300.15" class="st10" width="54.41" height="3.1"/>
			<rect x="119.89" y="307.2" class="st10" width="54.41" height="3.1"/>
			<path class="st5" d="M436,262.1H286.4c-3.74,0-6.77-3.03-6.77-6.77v-40.59c0-3.74,3.03-6.77,6.77-6.77H436
				c3.74,0,6.77,3.03,6.77,6.77v40.59C442.77,259.07,439.74,262.1,436,262.1z"/>
			<path class="st11" d="M328.13,242.93c0,0,8.27-20.3,31.95-15.41c23.68,4.89,35.71,31.57,66.15,9.77"/>
			<rect x="401.42" y="244.05" class="st12" width="3.38" height="3.38"/>
			<line class="st13" x1="332.26" y1="226.58" x2="375.11" y2="226.58"/>
			<line class="st13" x1="381.69" y1="246.68" x2="424.54" y2="246.68"/>
			<rect x="350.3" y="224.88" class="st12" width="3.38" height="3.38"/>
			<g>
				<path class="st7" d="M308.2,276h-32.33c-2.7,0-4.89-2.19-4.89-4.89v-48.49c0-2.7,2.19-4.89,4.89-4.89h32.33
					c2.7,0,4.89,2.19,4.89,4.89v48.49C313.09,273.82,310.9,276,308.2,276z"/>
				<g>
					<g>
						<rect x="277.57" y="226.01" class="st9" width="23.96" height="3.3"/>
						<rect x="277.57" y="233.38" class="st9" width="23.96" height="3.3"/>
						<rect x="277.57" y="240.75" class="st9" width="9.02" height="3.3"/>
					</g>
					<g>
						<rect x="277.57" y="248.38" class="st5" width="15.6" height="3.3"/>
						<rect x="277.57" y="255.74" class="st5" width="10.52" height="3.3"/>
						<rect x="277.57" y="263.11" class="st9" width="10.52" height="3.3"/>
					</g>
				</g>
			</g>
			<line class="st14" x1="416.46" y1="200.64" x2="433.37" y2="200.64"/>
			<g>
				<path class="st15" d="M378.45,296.08l-5.84,4.57l-8.38,1.52c0,0-7.87-0.51-8.63-0.51s-6.09-4.31-6.09-4.31l-9.9-3.55l-6.85,2.54
					l-8.12-1.78l-12.18-0.76l-11.68,4.57l-9.64,1.52l-8.63,2.79l-9.64,0.76l-10.41-8.12l-9.64-1.78l-9.9,5.58l-7.87,2.54l-8.93-0.25
					l-11.26,6.85h-6.71l-11.34,3.98"/>
				<g>
					<g>
						<line class="st16" x1="196.98" y1="312.41" x2="378.71" y2="312.41"/>
						<rect x="195.2" y="310.12" class="st17" width="1.86" height="4.57"/>
						<rect x="377.61" y="310.12" class="st17" width="1.86" height="4.57"/>
					</g>
					<path class="st18" d="M196.98,312.41"/>
				</g>
				<line class="st16" x1="378.54" y1="312.41" x2="378.54" y2="297.09"/>
				<path class="st17" d="M379.55,296.33c0,0.79-0.64,1.44-1.44,1.44c-0.79,0-1.44-0.64-1.44-1.44c0-0.79,0.64-1.44,1.44-1.44
					C378.91,294.89,379.55,295.54,379.55,296.33z"/>
				<text transform="matrix(1 0 0 1 197.2293 323.1255)" class="st17 st19 st20">beta test</text>
				<rect x="238.94" y="319.01" class="st21" width="113.03" height="2.03"/>
				<rect x="238.94" y="319.01" class="st3" width="69.38" height="2.03"/>
				<rect x="238.94" y="322.9" class="st21" width="55.58" height="2.03"/>
				<g>
					<polygon class="st3" points="203.7,328.95 210.56,328.95 211.44,327.04 197.61,327.04 197.61,330.22 202.43,330.22 					"/>
					<rect x="217.14" y="327.02" class="st17" width="0.76" height="0.76"/>
					<rect x="221.87" y="327.02" class="st17" width="0.76" height="0.76"/>
					<rect x="226.6" y="327.02" class="st17" width="0.76" height="0.76"/>
				</g>
				<text transform="matrix(1 0 0 1 369.6502 291.2583)" class="st17 st22 st20">500</text>
				<g>
					<polygon class="st21" points="360.09,325.1 358.4,325.1 355.69,319.01 357.39,319.01 					"/>
					<polygon class="st21" points="364.49,325.1 362.8,325.1 360.09,319.01 361.78,319.01 					"/>
					<polygon class="st21" points="368.89,325.1 367.2,325.1 364.49,319.01 366.18,319.01 					"/>
					<polygon class="st21" points="373.29,325.1 371.6,325.1 368.89,319.01 370.58,319.01 					"/>
					<polygon class="st21" points="377.61,325.1 375.91,325.1 373.21,319.01 374.9,319.01 					"/>
				</g>
			</g>
			<g>
				<g>
					<rect x="342.75" y="115.37" class="st1" width="27.51" height="4.93"/>
					<rect x="342.75" y="124.19" class="st1" width="41.48" height="4.93"/>
					<rect x="342.75" y="133.01" class="st1" width="51.16" height="4.93"/>
					<rect x="342.75" y="141.83" class="st1" width="19.56" height="4.93"/>
				</g>
			</g>
			<g>
				<g>
					<rect x="54.08" y="174.76" class="st8" width="27.51" height="4.93"/>
					<rect x="54.08" y="183.58" class="st1" width="41.48" height="4.93"/>
					<rect x="54.08" y="192.4" class="st1" width="51.16" height="4.93"/>
					<rect x="54.08" y="201.22" class="st1" width="19.56" height="4.93"/>
				</g>
			</g>
			<rect x="122.71" y="347.79" class="st23" width="117.27" height="15.22"/>
			<rect x="179.28" y="227.89" class="st23" width="5.64" height="34.58"/>
			<g>
				
					<ellipse transform="matrix(0.9872 -0.1592 0.1592 0.9872 -43.51 68.9126)" class="st3" cx="408.3" cy="305.98" rx="19.43" ry="19.43"/>
				<g>
					<g>
						<path class="st24" d="M406.89,304.16l-7.72,2.83l7.72,2.8v2.9l-11.03-4.2v-3.01l11.03-4.19V304.16z"/>
					</g>
					<g>
						<path class="st24" d="M409.41,301.29l11.03,4.19v3.01l-11.03,4.2v-2.9l7.72-2.8l-7.72-2.83V301.29z"/>
					</g>
				</g>
			</g>
			<path class="st25" d="M440.7,321.86c0,1.4-1.14,2.54-2.54,2.54c-1.4,0-2.54-1.14-2.54-2.54c0-1.4,1.14-2.54,2.54-2.54
				C439.56,319.32,440.7,320.46,440.7,321.86z"/>
			<rect x="116.51" y="138.06" class="st23" width="91.9" height="9.58"/>
			<rect x="120.46" y="141.16" class="st5" width="56.94" height="2.82"/>
			<g>
				<rect x="194.69" y="212.86" class="st7" width="67.28" height="3.38"/>
				<rect x="194.69" y="212.86" class="st8" width="30.49" height="3.38"/>
			</g>
			<g>
				<rect x="194.69" y="221.6" class="st7" width="67.28" height="3.38"/>
				<rect x="194.69" y="221.6" class="st3" width="46.84" height="3.38"/>
			</g>
			<g>
				<rect x="194.69" y="230.33" class="st7" width="67.28" height="3.38"/>
				<rect x="194.69" y="230.33" class="st26" width="13.72" height="3.38"/>
			</g>
			<g>
				<rect x="194.97" y="206.94" class="st7" width="1.32" height="1.32"/>
				<rect x="199.48" y="206.94" class="st7" width="1.32" height="1.32"/>
				<rect x="203.99" y="206.94" class="st7" width="1.32" height="1.32"/>
			</g>
			<g>
				<rect x="320.17" y="253.01" class="st9" width="2.19" height="2.19"/>
				<rect x="327.69" y="253.01" class="st9" width="2.19" height="2.19"/>
				<rect x="335.21" y="253.01" class="st9" width="2.19" height="2.19"/>
			</g>
			<g>
				<rect x="351.82" y="165.88" class="st9" width="4.11" height="4.11"/>
				<rect x="365.91" y="165.88" class="st9" width="4.11" height="4.11"/>
				<rect x="380.01" y="165.88" class="st9" width="4.11" height="4.11"/>
			</g>
			<g>
				<rect x="293.56" y="335.78" class="st9" width="4.11" height="4.11"/>
				<rect x="307.65" y="335.78" class="st9" width="4.11" height="4.11"/>
				<rect x="321.75" y="335.78" class="st9" width="4.11" height="4.11"/>
			</g>
			<g>
				<rect x="121.08" y="221.94" class="st9" width="2.19" height="2.19"/>
				<rect x="128.6" y="221.94" class="st9" width="2.19" height="2.19"/>
				<rect x="136.12" y="221.94" class="st9" width="2.19" height="2.19"/>
			</g>
			<g>
				<rect x="392.02" y="219.25" class="st9" width="36.46" height="3.57"/>
				<rect x="392.02" y="225.54" class="st27" width="10.82" height="3.57"/>
			</g>
			<polygon class="st26" points="97.9,226.58 90.01,226.58 90.01,218.68 82.68,218.68 82.68,226.58 74.79,226.58 74.79,233.91 
				82.68,233.91 82.68,241.8 90.01,241.8 90.01,233.91 97.9,233.91 			"/>
			<polygon class="st8" points="76.78,248.56 71.97,248.56 71.97,243.75 67.5,243.75 67.5,248.56 62.69,248.56 62.69,253.03 
				67.5,253.03 67.5,257.85 71.97,257.85 71.97,253.03 76.78,253.03 			"/>
			<g>
				<path class="st7" d="M208.52,244.36c-6.82,0-12.34,5.53-12.34,12.34c0,6.82,5.53,12.34,12.34,12.34
					c6.82,0,12.34-5.53,12.34-12.34C220.86,249.89,215.33,244.36,208.52,244.36z M208.52,263.14c-3.55,0-6.43-2.88-6.43-6.43
					s2.88-6.43,6.43-6.43c3.55,0,6.43,2.88,6.43,6.43S212.07,263.14,208.52,263.14z"/>
				<path class="st5" d="M200.11,255.49c1.15,0,2.15-0.68,2.67-1.7c1.06-2.08,3.23-3.51,5.73-3.51c2.5,0,4.67,1.43,5.73,3.51
					c0.52,1.02,1.53,1.7,2.67,1.7l0,0c2.16,0,3.64-2.26,2.69-4.2c-2.01-4.1-6.22-6.92-11.09-6.92c-4.87,0-9.08,2.82-11.09,6.92
					C196.48,253.23,197.95,255.49,200.11,255.49L200.11,255.49z"/>
			</g>
			<g>
				<path class="st7" d="M229.25,256.71c0,6.82,5.53,12.34,12.34,12.34c6.82,0,12.34-5.53,12.34-12.34
					c0-6.82-5.53-12.34-12.34-12.34C234.78,244.36,229.25,249.89,229.25,256.71z M248.03,256.71c0,3.55-2.88,6.43-6.43,6.43
					c-3.55,0-6.43-2.88-6.43-6.43c0-3.55,2.88-6.43,6.43-6.43C245.15,250.27,248.03,253.15,248.03,256.71z"/>
				<path class="st3" d="M240.38,265.11c0-1.15-0.68-2.15-1.7-2.67c-2.08-1.06-3.51-3.23-3.51-5.73c0-2.5,1.43-4.67,3.51-5.73
					c1.02-0.52,1.7-1.53,1.7-2.67l0,0c0-2.16-2.26-3.64-4.2-2.69c-4.1,2.01-6.92,6.22-6.92,11.09c0,4.87,2.82,9.08,6.92,11.09
					C238.11,268.75,240.38,267.27,240.38,265.11L240.38,265.11z"/>
			</g>
			<rect x="150.71" y="207.97" class="st23" width="22.55" height="54.13"/>
			<g>
				<rect x="153.91" y="218.4" class="st26" width="6.58" height="1.94"/>
				<rect x="153.91" y="222.74" class="st26" width="6.58" height="1.94"/>
				<rect x="153.91" y="227.07" class="st26" width="6.58" height="1.94"/>
				<rect x="153.91" y="249.63" class="st26" width="6.58" height="1.94"/>
			</g>
			<g>
				<rect x="153.91" y="233.44" class="st26" width="9.58" height="1.94"/>
				<rect x="153.91" y="237.77" class="st9" width="9.58" height="1.94"/>
				<rect x="153.91" y="242.11" class="st9" width="9.58" height="1.94"/>
			</g>
			<rect x="69.9" y="275.63" class="st5" width="28.57" height="28.57"/>
			<rect x="54.87" y="282.39" class="st23" width="28.57" height="28.57"/>
			<rect x="409.69" y="358.32" class="st23" width="12.03" height="12.03"/>
			<g>
				<polyline class="st11" points="265.36,339.34 275.5,339.34 281.14,344.98 339.78,344.98 348.8,335.95 380.37,335.95 				"/>
				<circle class="st11" cx="262.4" cy="339.48" r="2.96"/>
				<circle class="st11" cx="383.43" cy="335.81" r="2.96"/>
			</g>
			<path class="st5" d="M423.22,180.16c0,2.08-1.68,3.76-3.76,3.76s-3.76-1.68-3.76-3.76s1.68-3.76,3.76-3.76
				S423.22,178.08,423.22,180.16z"/>
			<path class="st3" d="M75.92,326.75c0,2.08-1.68,3.76-3.76,3.76c-2.08,0-3.76-1.68-3.76-3.76c0-2.08,1.68-3.76,3.76-3.76
				C74.23,322.99,75.92,324.67,75.92,326.75z"/>
			<path class="st3" d="M93.21,340.65c0,3.63-2.95,6.58-6.58,6.58s-6.58-2.94-6.58-6.58c0-3.63,2.94-6.58,6.58-6.58
				S93.21,337.02,93.21,340.65z"/>
			<g>
				<rect x="290.91" y="362.83" class="st23" width="26.31" height="6.01"/>
				<rect x="290.91" y="374.11" class="st23" width="57.7" height="6.01"/>
			</g>
			<g>
				<line class="st28" x1="129.73" y1="368.59" x2="123.35" y2="374.97"/>
				<line class="st28" x1="135.86" y1="368.59" x2="129.49" y2="374.97"/>
				<line class="st28" x1="141.99" y1="368.59" x2="135.62" y2="374.97"/>
				<line class="st28" x1="148.13" y1="368.59" x2="141.75" y2="374.97"/>
				<line class="st28" x1="154.26" y1="368.59" x2="147.88" y2="374.97"/>
			</g>
		</g>
	</g>
</g>
</svg>
